<?xml version="1.0" standalone="no"?>
<!DOCTYPE svg PUBLIC "-//W3C//DTD SVG 20010904//EN"
 "http://www.w3.org/TR/2001/REC-SVG-20010904/DTD/svg10.dtd">
<svg version="1.0" xmlns="http://www.w3.org/2000/svg"
 width="512.000000pt" height="512.000000pt" viewBox="0 0 512.000000 512.000000"
 preserveAspectRatio="xMidYMid meet">
<metadata>
Created by potrace 1.14, written by Peter Selinger 2001-2017
</metadata>
<g transform="translate(0.000000,512.000000) scale(0.100000,-0.100000)"
fill="#000000" stroke="none">
<path d="M0 2560 l0 -2560 2560 0 2560 0 0 2560 0 2560 -2560 0 -2560 0 0
-2560z m2539 1674 c17 -4 29 -10 26 -14 -2 -4 6 -5 18 -3 13 3 31 -4 45 -17
12 -11 22 -17 22 -13 0 4 16 -8 35 -27 19 -19 35 -38 35 -43 0 -5 11 -20 24
-32 14 -13 22 -26 19 -29 -4 -3 0 -6 8 -6 16 0 99 -101 99 -120 0 -12 54 28
119 89 18 17 37 31 43 31 5 0 19 11 32 25 16 17 26 21 33 14 8 -8 13 -7 18 2
5 8 4 10 -3 5 -7 -4 -12 -1 -12 8 0 8 9 17 19 21 11 3 22 12 25 20 13 35 207
108 221 84 4 -5 14 -9 23 -8 14 0 13 2 -3 9 -12 5 97 8 265 7 247 -2 285 -4
282 -17 -3 -12 -1 -13 9 -2 15 14 33 16 25 3 -4 -5 3 -7 14 -4 11 3 20 0 20
-6 0 -6 9 -11 19 -11 17 0 171 -154 171 -171 0 -4 16 -23 35 -43 19 -20 42
-48 52 -63 10 -14 32 -43 50 -62 17 -20 50 -56 72 -81 22 -25 41 -48 41 -52 0
-4 13 -20 28 -35 32 -31 116 -143 107 -143 -3 0 1 -16 10 -36 16 -38 16 -179
-1 -205 -5 -8 -7 -23 -6 -34 2 -17 1 -17 -7 -5 -7 9 -11 10 -11 3 0 -6 4 -14
9 -17 8 -6 6 -28 -5 -66 -4 -10 -7 -11 -12 -3 -4 6 -7 -19 -8 -55 0 -37 -4
-86 -9 -110 -7 -37 -10 -41 -24 -30 -15 12 -15 11 0 -7 19 -24 11 -82 -11 -77
-9 2 -11 -1 -4 -10 6 -7 7 -29 3 -48 -3 -19 -7 -29 -8 -21 0 8 -4 11 -7 8 -4
-4 -1 -13 5 -21 15 -18 5 -40 -12 -29 -7 4 -6 0 2 -10 12 -15 11 -17 -3 -17
-9 0 -16 -5 -16 -11 0 -5 5 -7 10 -4 6 4 10 -5 10 -20 0 -18 -4 -24 -12 -19
-10 6 -10 5 -1 -8 10 -11 10 -23 2 -47 -9 -24 -14 -29 -20 -19 -6 9 -9 9 -9 1
0 -6 5 -15 11 -19 7 -4 7 -10 1 -16 -6 -6 -8 -17 -5 -25 9 -24 -18 -153 -31
-146 -7 4 -7 2 1 -8 15 -19 5 -72 -13 -65 -17 6 -19 -10 -2 -20 7 -5 5 -11 -7
-21 -11 -7 -13 -13 -7 -13 7 0 12 -12 12 -27 -1 -35 -24 -135 -30 -131 -3 2
-3 -1 1 -5 10 -14 -7 -72 -20 -69 -8 1 -10 -2 -5 -10 16 -25 -12 -201 -30
-191 -7 4 -7 2 0 -6 15 -16 2 -77 -16 -73 -10 2 -11 0 -3 -10 7 -8 8 -32 3
-63 -33 -216 -40 -245 -62 -245 -10 0 -9 -3 1 -9 10 -6 12 -20 8 -47 -3 -22
-11 -70 -17 -108 -12 -78 -17 -89 -33 -79 -9 5 -9 3 -1 -8 11 -14 2 -128 -12
-150 -3 -5 -7 -32 -9 -59 -4 -55 -12 -73 -26 -65 -5 4 -9 2 -9 -4 0 -5 4 -11
9 -13 9 -3 -3 -119 -15 -148 -4 -8 -7 -26 -8 -40 -1 -14 -5 -35 -10 -48 l-7
-22 -411 2 c-318 2 -412 6 -416 16 -2 6 4 12 13 12 13 0 15 3 7 13 -6 7 -9 22
-7 33 2 10 7 40 10 66 5 36 11 48 23 48 13 0 14 2 4 8 -9 6 -11 23 -7 57 7 57
12 68 28 59 8 -5 8 -3 0 7 -18 18 -16 29 5 30 10 0 12 3 5 6 -17 6 -16 66 1
108 8 18 12 35 10 38 -3 2 2 38 10 78 8 41 17 97 21 124 4 28 9 54 12 59 4 5
7 25 8 45 3 55 15 87 26 70 6 -9 9 -10 9 -2 0 6 -5 15 -10 18 -7 4 -7 12 0 24
5 10 7 21 4 24 -3 3 0 37 7 76 11 62 14 69 28 59 15 -12 15 -11 0 7 -19 25
-11 82 12 77 10 -2 11 0 4 7 -15 15 -6 83 9 74 6 -4 5 1 -2 10 -8 9 -11 21 -7
28 6 8 10 7 16 -2 6 -10 9 -10 9 -2 0 6 -4 14 -8 17 -4 3 -6 21 -4 40 3 24 8
33 16 29 8 -5 8 -3 -1 8 -15 19 -5 72 13 65 16 -6 19 5 5 20 -6 5 -6 24 -1 44
4 19 8 29 9 21 1 -8 4 -11 7 -8 4 4 2 12 -4 19 -13 16 9 123 23 111 5 -4 4 -1
-2 8 -15 19 -1 75 17 71 10 -2 11 0 2 10 -6 8 -9 23 -7 34 2 10 9 51 16 91 8
47 16 70 23 66 7 -4 7 -2 0 6 -9 10 -8 28 1 74 7 34 19 94 26 134 7 42 16 70
22 66 6 -4 6 1 0 12 -7 12 -6 36 2 74 23 102 36 166 36 183 0 12 6 15 17 10
16 -5 16 -5 0 11 -13 13 -14 24 -7 54 9 36 27 135 32 178 2 20 -5 20 -267 23
-156 1 -274 -2 -279 -7 -9 -9 -37 -138 -38 -173 0 -12 -6 -15 -17 -10 -16 5
-16 5 -1 -11 14 -13 15 -23 6 -61 -7 -31 -16 -46 -26 -46 -13 0 -13 -2 -2 -9
10 -7 12 -22 7 -65 -4 -31 -11 -58 -16 -61 -5 -3 -7 -12 -3 -20 4 -11 1 -13
-13 -8 -18 6 -18 6 -2 -10 15 -15 15 -22 2 -69 -7 -29 -14 -64 -14 -78 0 -14
-5 -43 -11 -64 -8 -29 -13 -36 -20 -25 -5 8 -9 9 -9 4 0 -6 4 -15 9 -20 9 -11
-3 -128 -16 -148 -4 -7 -6 -21 -5 -32 2 -17 1 -17 -7 -5 -7 9 -11 10 -11 3 0
-6 4 -14 9 -18 6 -3 6 -18 1 -37 -5 -17 -12 -54 -15 -81 -6 -49 -24 -99 -25
-68 0 8 -3 11 -6 8 -4 -4 -2 -12 3 -19 14 -17 4 -80 -11 -71 -7 5 -7 2 1 -8 8
-9 9 -20 3 -29 -8 -13 -10 -13 -10 -1 0 8 -3 11 -6 8 -4 -4 -2 -12 4 -19 13
-17 -9 -123 -23 -111 -6 4 -5 2 2 -6 14 -16 6 -44 -11 -34 -8 4 -8 3 -1 -6 15
-15 6 -83 -9 -74 -8 4 -8 3 0 -6 17 -19 -4 -114 -24 -106 -12 4 -13 3 -3 -9
17 -20 10 -82 -8 -78 -11 2 -12 0 -4 -10 14 -17 5 -80 -11 -71 -7 4 -7 2 1 -8
10 -12 10 -24 1 -55 -6 -21 -11 -42 -10 -46 1 -5 -6 -8 -15 -9 -11 0 -13 -3
-5 -6 6 -2 12 -14 12 -26 0 -23 -17 -122 -32 -182 -5 -22 -10 -46 -10 -52 -1
-7 -8 -13 -17 -14 -10 0 -12 -2 -3 -6 18 -7 12 -74 -19 -208 -6 -22 -12 -58
-15 -80 -2 -22 -9 -60 -14 -85 -5 -25 -12 -68 -15 -96 -4 -31 -15 -61 -26 -73
-12 -13 -15 -21 -7 -21 8 0 9 -3 2 -10 -16 -16 -816 -9 -822 8 -2 8 2 10 15 5
17 -6 17 -6 1 10 -13 13 -14 24 -7 54 5 21 14 63 19 93 4 30 13 78 19 105 5
28 13 71 16 97 3 26 10 50 15 53 4 3 6 15 3 28 -4 18 -3 19 6 7 6 -8 11 -10
11 -4 0 5 -4 14 -9 20 -11 11 9 104 22 104 5 0 5 6 0 13 -6 7 -7 25 -1 46 7
26 12 31 19 20 5 -8 9 -9 9 -3 0 5 -4 14 -9 20 -13 13 -1 75 13 67 7 -5 7 -2
-1 8 -8 9 -9 20 -3 29 8 13 10 13 10 1 0 -8 3 -11 6 -8 4 4 2 12 -4 19 -5 7
-8 26 -5 41 4 21 10 27 22 22 13 -5 14 -4 4 6 -17 17 -17 53 0 43 8 -6 8 -3
-1 9 -8 9 -11 21 -7 28 6 8 10 7 16 -2 6 -10 9 -10 9 -2 0 6 -4 14 -8 17 -13
8 -2 77 12 69 8 -4 8 -3 0 6 -17 19 4 114 24 106 12 -4 13 -3 2 10 -7 8 -10
28 -7 47 17 107 20 117 31 111 7 -4 6 -1 -1 8 -10 12 -10 24 -1 55 6 21 11 45
9 51 -1 8 5 10 16 6 17 -6 17 -6 2 10 -15 15 -15 23 -4 74 18 79 34 161 40
203 9 67 27 165 36 205 6 22 12 60 15 85 3 25 9 61 15 80 5 19 9 46 9 60 0 42
20 101 32 94 7 -5 8 -1 1 10 -6 10 -6 37 -2 64 5 26 11 66 15 89 4 27 11 40
18 36 8 -4 8 -3 0 6 -16 17 0 81 23 100 12 9 13 12 3 9 -12 -4 -14 3 -11 39 2
33 7 43 17 39 8 -3 14 -1 14 4 0 6 -5 10 -11 10 -7 0 -8 7 -4 18 4 9 7 27 6
40 0 15 3 21 12 17 6 -4 3 1 -8 9 -17 14 -54 16 -285 14 l-265 -3 -16 -63 c-8
-34 -18 -60 -22 -57 -4 2 -3 0 2 -6 12 -15 -3 -75 -19 -71 -10 2 -11 0 -2 -10
6 -8 9 -23 7 -34 -2 -10 -9 -51 -16 -91 -8 -47 -16 -70 -23 -66 -7 4 -7 2 1
-8 15 -19 5 -69 -14 -69 -11 0 -13 -4 -5 -12 9 -12 -1 -128 -12 -147 -3 -4 -7
-31 -11 -61 -7 -62 -12 -73 -28 -64 -8 5 -8 3 1 -7 17 -18 15 -29 -5 -30 -11
0 -13 -3 -5 -6 15 -6 16 -46 1 -93 -5 -19 -12 -53 -15 -75 -2 -22 -9 -60 -14
-85 -5 -25 -12 -67 -15 -95 -4 -27 -10 -54 -13 -59 -3 -5 -6 -23 -7 -40 -1
-17 -6 -53 -12 -81 -7 -27 -17 -85 -24 -128 -10 -68 -14 -76 -28 -65 -15 12
-15 11 0 -7 19 -25 11 -82 -12 -77 -10 2 -11 0 -4 -7 15 -15 6 -83 -9 -74 -6
4 -6 1 2 -9 9 -11 10 -23 2 -42 -5 -15 -10 -39 -10 -52 0 -18 -4 -23 -12 -18
-9 6 -9 3 0 -9 15 -18 7 -41 -11 -31 -8 5 -8 3 1 -7 17 -18 15 -32 -3 -25 -17
6 -20 -5 -6 -20 6 -5 6 -24 1 -44 -4 -19 -8 -29 -9 -21 -1 8 -4 11 -7 8 -4 -4
-2 -12 4 -19 13 -17 -9 -123 -23 -111 -6 4 -5 2 1 -5 15 -18 2 -78 -16 -74
-10 2 -11 0 -2 -10 8 -10 7 -35 -4 -93 -7 -44 -14 -86 -14 -93 0 -8 -5 -10
-12 -6 -10 5 -10 4 -2 -5 9 -10 8 -28 -1 -74 -7 -34 -19 -94 -26 -134 -7 -42
-16 -70 -22 -66 -6 4 -6 0 0 -12 12 -20 6 -60 -12 -75 -8 -7 -147 -9 -416 -8
l-404 3 0 30 c0 20 5 29 13 27 8 -1 11 2 6 9 -3 6 0 15 7 20 8 5 9 9 4 9 -6 0
-12 11 -13 26 -1 18 2 23 11 18 8 -6 8 -3 -1 9 -8 9 -11 21 -7 28 6 8 10 7 16
-2 6 -10 9 -10 9 -2 0 6 -4 14 -8 17 -4 3 -6 21 -4 40 3 24 8 33 16 29 6 -4 6
-1 -2 9 -7 8 -10 23 -7 32 16 51 16 51 24 37 5 -7 6 11 4 41 -3 39 -2 49 6 38
6 -8 11 -10 11 -4 0 5 -5 15 -11 21 -14 14 -2 36 14 26 9 -5 9 -3 1 8 -15 18
-6 81 10 72 7 -4 6 -1 -1 9 -10 11 -10 23 -2 47 9 24 14 29 20 19 6 -9 9 -9 9
-1 0 6 -5 15 -11 19 -7 4 -7 10 -1 16 6 6 8 17 5 25 -9 24 18 153 31 146 8 -4
8 -2 0 6 -15 16 -2 77 16 73 11 -3 11 0 1 12 -10 12 -9 16 6 25 10 6 12 11 6
11 -8 0 -13 12 -13 28 1 41 25 134 33 128 4 -3 3 -1 -2 5 -12 15 3 75 18 71 8
-1 10 2 5 10 -16 25 12 201 30 191 6 -4 6 0 -1 8 -15 19 -2 75 17 71 11 -3 11
0 1 12 -10 12 -9 16 6 25 12 7 13 10 4 11 -14 0 -14 9 9 154 12 78 17 89 33
79 8 -4 7 -1 -1 9 -11 14 -10 18 5 27 10 6 12 11 6 11 -15 0 -17 57 -4 92 5
13 11 47 15 77 7 60 13 74 27 66 5 -4 9 -1 9 4 0 6 -4 11 -8 11 -9 0 3 124 13
141 4 5 8 32 10 59 4 55 12 73 26 65 5 -4 9 -1 9 4 0 6 -5 11 -11 11 -7 0 -8
7 -4 18 4 9 7 24 7 32 -1 8 4 45 10 82 10 60 13 66 27 55 14 -11 15 -10 1 7
-8 10 -13 31 -11 45 4 36 12 46 22 30 6 -10 9 -10 9 -2 0 6 -4 14 -8 17 -13 8
-2 77 12 69 8 -4 8 -2 -1 7 -9 9 -8 22 2 51 8 22 11 39 8 39 -3 0 2 9 11 19
10 11 19 26 20 35 1 9 12 25 24 36 12 12 22 25 22 31 0 5 8 9 17 7 12 -2 18 4
18 17 0 11 10 24 22 30 12 5 27 18 33 30 15 28 76 68 91 59 8 -4 9 -3 5 5 -4
6 -2 18 4 26 15 18 45 20 34 3 -4 -7 -3 -8 5 -4 6 4 9 12 5 17 -5 9 83 99 98
99 3 0 20 12 36 28 70 66 109 100 142 122 19 13 50 39 69 58 19 18 40 31 48
28 8 -3 11 -1 8 5 -4 5 -1 16 5 24 15 18 45 20 34 3 -4 -7 -3 -8 5 -4 6 4 9
12 5 17 -8 13 30 43 95 75 45 23 57 25 74 15 10 -7 16 -8 13 -3 -3 6 0 13 6
15 19 8 560 8 597 1z"/>
<path d="M1988 4223 c7 -3 16 -2 19 1 4 3 -2 6 -13 5 -11 0 -14 -3 -6 -6z"/>
<path d="M2478 4223 c7 -3 16 -2 19 1 4 3 -2 6 -13 5 -11 0 -14 -3 -6 -6z"/>
<path d="M3868 4223 c7 -3 16 -2 19 1 4 3 -2 6 -13 5 -11 0 -14 -3 -6 -6z"/>
<path d="M4582 3425 c0 -16 2 -22 5 -12 2 9 2 23 0 30 -3 6 -5 -1 -5 -18z"/>
<path d="M1963 3433 c76 -2 198 -2 270 0 73 1 11 3 -138 3 -148 0 -208 -2
-132 -3z"/>
<path d="M3363 3433 c76 -2 198 -2 270 0 73 1 11 3 -138 3 -148 0 -208 -2
-132 -3z"/>
<path d="M4105 740 c3 -5 8 -10 11 -10 2 0 4 5 4 10 0 6 -5 10 -11 10 -5 0 -7
-4 -4 -10z"/>
</g>
</svg>
